<?xml version="1.0" encoding="utf-8"?>
<!-- Generator: Adobe Illustrator 22.0.1, SVG Export Plug-In . SVG Version: 6.00 Build 0)  -->
<svg version="1.1" id="Layer_1" xmlns="http://www.w3.org/2000/svg" xmlns:xlink="http://www.w3.org/1999/xlink" x="0px" y="0px"
	 viewBox="0 0 100 100" enable-background="new 0 0 100 100" xml:space="preserve">
<g>
	<path d="M83.4,20.1c1.7,0,3.2,0.7,4.3,1.8c1,1.1,1.7,2.5,1.7,4.1c0,0.1,0,0.2,0,0.2l0,60.2c0,0.1,0,0.1,0,0.2c0,1.6-0.6,3-1.7,4.1
		c-1.1,1.1-2.6,1.8-4.3,1.8l-66.3,0c-1.7,0-3.2-0.7-4.3-1.8c-1.1-1.1-1.8-2.6-1.8-4.3V26.2c0-1.7,0.7-3.2,1.8-4.3
		c1.1-1.1,2.6-1.8,4.3-1.8H23v-4.5c0,0,0,0,0,0c0-2.1,0.9-4,2.3-5.4c1.3-1.3,3.1-2.2,5-2.2c0.1,0,0.2,0,0.2,0l3,0c0.1,0,0.2,0,0.2,0
		c2,0,3.8,0.8,5,2.1c1.4,1.4,2.3,3.3,2.3,5.4c0,0,0,0,0,0v4.5h18.1v-4.5c0-0.1,0-0.2,0-0.3c0-2,0.8-3.9,2.1-5.2
		C62.7,8.9,64.5,8,66.5,8c0.1,0,0.1,0,0.2,0l3.1,0c0,0,0.1,0,0.1,0c2,0,3.8,0.8,5.1,2.1c1.3,1.3,2.1,3.2,2.1,5.2c0,0.1,0,0.2,0,0.3
		l0,4.4L83.4,20.1z M65.2,15.6v13.5c0,0,0,0,0,0c0,0.4,0.2,0.8,0.5,1.1c0.3,0.2,0.6,0.3,1,0.3h3.1c0.4,0,0.7-0.2,1-0.3
		c0.3-0.3,0.5-0.7,0.5-1.1c0,0,0,0,0,0V15.6c0,0,0,0,0,0c0-0.4-0.2-0.8-0.5-1.1c-0.2-0.2-0.5-0.3-0.8-0.3c-0.1,0-0.1,0-0.2,0l-3.1,0
		c-0.3,0-0.8,0-1,0.3C65.4,14.8,65.2,15.2,65.2,15.6C65.2,15.6,65.2,15.6,65.2,15.6L65.2,15.6z M29.1,15.6v13.5
		c0,0.4,0.1,0.8,0.3,1.1c0.3,0.2,0.7,0.3,1.1,0.3l3,0c0.4,0,0.8-0.1,1.1-0.3c0.2-0.3,0.3-0.7,0.3-1.1l0-13.5c0-0.4-0.1-0.8-0.3-1.1
		c-0.2-0.2-0.6-0.3-0.9-0.3c-0.1,0-0.2,0-0.2,0l-3,0c-0.1,0-0.1,0-0.2,0c-0.4,0-0.7,0.1-0.9,0.3C29.2,14.8,29.1,15.2,29.1,15.6
		L29.1,15.6z M83.4,86.4V38.2H17v48.2H83.4z M53.2,59.4h10.6c0.4,0,0.8,0.1,1.1,0.3c0.2,0.3,0.3,0.7,0.3,1.1l0,3
		c0,0.4-0.1,0.8-0.3,1.1c-0.2,0.2-0.6,0.3-0.9,0.3c-0.1,0-0.2,0-0.2,0l-10.6,0v10.6c0,0,0,0,0,0c0,0.4-0.2,0.8-0.5,1.1
		c-0.2,0.3-0.5,0.5-0.9,0.5c0,0-0.1,0-0.1,0l-3,0c-0.9,0-1.6-0.7-1.6-1.6l0-10.5H36.5c0,0-0.1,0-0.2,0c-0.3,0-0.6-0.1-0.8-0.3
		c-0.3-0.3-0.5-0.7-0.5-1.1c0,0,0,0,0,0v-3c0,0,0,0,0,0c0-0.4,0.2-0.8,0.5-1.1c0.3-0.2,0.6-0.3,1-0.4l10.6,0V48.8c0,0,0,0,0,0
		c0-0.4,0.2-0.8,0.5-1.1c0.3-0.2,0.7-0.3,1.1-0.3l3,0c0,0,0.1,0,0.1,0c0.3,0,0.7,0.1,0.9,0.3c0.3,0.3,0.5,0.7,0.5,1.1c0,0,0,0,0,0
		L53.2,59.4z"/>
</g>
</svg>
