<?xml version="1.0" encoding="utf-8"?>
<!-- Generator: Adobe Illustrator 22.0.1, SVG Export Plug-In . SVG Version: 6.00 Build 0)  -->
<svg version="1.1" id="Layer_1" xmlns="http://www.w3.org/2000/svg" xmlns:xlink="http://www.w3.org/1999/xlink" x="0px" y="0px"
	 viewBox="0 0 100 100" enable-background="new 0 0 100 100" xml:space="preserve">
<g>
	<path d="M66.4,61.2l-3.6,5.8L41.9,54.5V31.8h6.7v18.7L66.4,61.2L66.4,61.2z M94.6,48.1V19.2L84.4,29.4C77.2,16.6,63.6,8,48.1,8
		C48,8,48,8,47.9,8C24.6,8,5.7,26.9,5.7,50.3s18.9,42.2,42.2,42.2l0,0c19.4,0,35.8-13,40.9-30.8l-9.3-0.3C74.7,74.1,62.6,83,48.5,83
		c-18.2,0-33-14.8-33-33s14.8-33,33-33c13,0,24.2,7.5,29.6,18.4L65.7,48.1H94.6z"/>
</g>
</svg>
