<?xml version="1.0" encoding="utf-8"?>
<!-- Generator: Adobe Illustrator 22.0.1, SVG Export Plug-In . SVG Version: 6.00 Build 0)  -->
<svg version="1.1" id="Capa_1" xmlns="http://www.w3.org/2000/svg" xmlns:xlink="http://www.w3.org/1999/xlink" x="0px" y="0px"
	 viewBox="0 0 100 100" style="enable-background:new 0 0 100 100;" xml:space="preserve">
<g>
	<path d="M92.3,20.3H7.7c-1.1,0-2,0.9-2,2v55.3c0,1.1,0.9,2,2,2h84.6c1.1,0,2-0.9,2-2V22.3C94.3,21.2,93.4,20.3,92.3,20.3z
		 M90.3,75.7H9.7V24.3h80.6V75.7z"/>
	<g>
		<path d="M61.7,60.6h18.8c1.1,0,2-0.9,2-2c0-1.1-0.9-2-2-2H61.7c-1.1,0-2,0.9-2,2C59.7,59.7,60.6,60.6,61.7,60.6z"/>
		<path d="M61.7,41.1h18.8c1.1,0,2-0.9,2-2s-0.9-2-2-2H61.7c-1.1,0-2,0.9-2,2S60.6,41.1,61.7,41.1z"/>
		<path d="M61.7,50.6h18.8c1.1,0,2-0.9,2-2c0-1.1-0.9-2-2-2H61.7c-1.1,0-2,0.9-2,2C59.7,49.7,60.6,50.6,61.7,50.6z"/>
	</g>
	<g>
		<path d="M31.9,45.9c2-1.3,3.4-3.6,3.4-6.2c0-4-3.3-7.3-7.3-7.3c-4,0-7.3,3.3-7.3,7.3c0,2.6,1.3,4.9,3.4,6.2
			c-4.8,0.4-8.5,4.5-8.5,9.3v7.6l0,0.1l0.5,0.2c4.9,1.5,9.2,2.1,12.7,2.1c6.9,0,10.9-2,11.1-2.1l0.5-0.2h0.1v-7.6
			C40.5,50.4,36.7,46.4,31.9,45.9z"/>
	</g>
</g>
</svg>
