<?xml version="1.0" encoding="utf-8"?>
<!-- Generator: Adobe Illustrator 22.0.1, SVG Export Plug-In . SVG Version: 6.00 Build 0)  -->
<svg version="1.1" id="Layer_1" xmlns="http://www.w3.org/2000/svg" xmlns:xlink="http://www.w3.org/1999/xlink" x="0px" y="0px"
	 viewBox="0 0 100 100" enable-background="new 0 0 100 100" xml:space="preserve">
<g>
	<path d="M76.5,27.1c-0.4-0.4-0.8-0.5-1.4-0.5H64.9c-0.7-3.3-2-6.2-3.8-8.6h14c0.6,0,1-0.2,1.4-0.5c0.4-0.4,0.5-0.8,0.5-1.4V9.9
		c0-0.6-0.2-1-0.5-1.4C76,8.2,75.6,8,75,8H25.1c-0.6,0-1,0.2-1.4,0.5c-0.4,0.4-0.5,0.8-0.5,1.4v8c0,0.5,0.2,1,0.6,1.3
		c0.4,0.4,0.8,0.6,1.3,0.6h8.7c8.4,0,13.8,2.3,16.1,6.8H25.1c-0.6,0-1,0.2-1.4,0.5c-0.4,0.4-0.5,0.8-0.5,1.4v6.1
		c0,0.6,0.2,1,0.5,1.4c0.4,0.4,0.8,0.5,1.4,0.5h25.6c-0.9,3.3-2.9,5.8-6.2,7.5c-3.2,1.7-7.5,2.6-12.7,2.6h-6.7c-0.5,0-1,0.2-1.3,0.6
		c-0.4,0.4-0.6,0.8-0.6,1.3v7.6c0,0.5,0.2,1,0.5,1.3c7.7,8.2,17.6,19.6,29.9,34.3c0.4,0.5,0.9,0.7,1.5,0.7h11.7
		c0.8,0,1.4-0.4,1.7-1.1c0.4-0.7,0.3-1.4-0.2-2C56.6,75,47.4,64.3,40.8,57.2c6.8-0.8,12.3-3,16.6-6.6c4.2-3.6,6.8-8.3,7.7-14h10.1
		c0.6,0,1-0.2,1.4-0.5c0.4-0.4,0.5-0.8,0.5-1.4v-6.1C77.1,28,76.9,27.5,76.5,27.1L76.5,27.1z"/>
</g>
</svg>
