<?xml version="1.0" encoding="utf-8"?>
<!-- Generator: Adobe Illustrator 22.0.1, SVG Export Plug-In . SVG Version: 6.00 Build 0)  -->
<svg version="1.1" id="Layer_1" xmlns="http://www.w3.org/2000/svg" xmlns:xlink="http://www.w3.org/1999/xlink" x="0px" y="0px"
	 viewBox="0 0 100 100" enable-background="new 0 0 100 100" xml:space="preserve">
<g>
	<path d="M88.3,54.6H77V43.7h11.3c1.6,0,3.1-1.3,3.1-3.1c0-1.6-1.4-3.1-3.1-3.1H77v-15c0-2.1-0.4-3.8-1.2-4.8
		c-0.8-0.9-1.9-1.3-3.4-1.3c-1.4,0-2.4,0.4-3.2,1.3c-0.8,1-1.2,2.6-1.2,4.8v15H46.7l-9-13.6c-0.8-1.2-1.6-2.4-2.2-3.5
		c-0.7-1-1.2-1.7-1.8-2.4c-0.6-0.5-1.2-0.9-1.8-1.2c-0.7-0.3-1.5-0.4-2.5-0.4c-1.2,0-2.4,0.3-3.5,1c-1.1,0.7-1.8,1.6-2.2,2.6
		c-0.4,1-0.7,2.6-0.7,4.6v12.9H11.9c-1.6,0-3.1,1.4-3.1,3.1c0,1.7,1.4,3.1,3.1,3.1h11.1v10.9H11.9c-1.6,0-3.1,1.3-3.1,3.1
		c0,1.6,1.4,3.1,3.1,3.1h11.1v17.2c0,2.1,0.5,3.7,1.3,4.7c0.9,1,2,1.4,3.4,1.4c1.4,0,2.5-0.4,3.4-1.4s1.3-2.6,1.3-4.7V60.7h19.1
		L62,76.6c0.7,1,1.5,2.1,2.2,3.1c0.7,0.9,1.4,1.7,2.1,2.5c0.7,0.6,1.5,1.1,2.2,1.3c0.8,0.3,1.7,0.4,2.8,0.4c2.8,0,5.6-0.8,5.6-7.2
		V60.7h11.3c1.6,0,3.1-1.4,3.1-3.1C91.4,55.9,90,54.6,88.3,54.6z M67.9,43.7v10.9H58l-7.2-10.9H67.9z M32.5,31.3l4.1,6.3h-4.1V31.3z
		 M32.5,54.6V43.7h8.1l7.1,10.9H32.5z M67.9,69.7l-5.9-9h5.9V69.7z"/>
</g>
</svg>
