<?xml version="1.0" encoding="utf-8"?>
<!-- Generator: Adobe Illustrator 22.0.1, SVG Export Plug-In . SVG Version: 6.00 Build 0)  -->
<svg version="1.1" id="Layer_1" xmlns="http://www.w3.org/2000/svg" xmlns:xlink="http://www.w3.org/1999/xlink" x="0px" y="0px"
	 viewBox="0 0 100 100" enable-background="new 0 0 100 100" xml:space="preserve">
<g>
	<path d="M41.3,25.7v15.7h3.8c6.8,0,10.3-2.9,10.3-7.9C55.4,27.2,50.8,25.7,41.3,25.7L41.3,25.7z M50.1,8C26.8,8,7.9,26.9,7.9,50.3
		s18.9,42.2,42.2,42.2s42.2-18.9,42.2-42.2S73.5,8,50.1,8z M74.1,71.4H61.9c-0.1,0-0.2,0-0.4,0c-0.7,0-1.3-0.3-1.7-0.8
		c-1-0.8-0.9-0.8-1.6-1.3l-9.1,12l-4.9-3.7l10-13.9c-2-4.9-4.5-9.1-7.7-12.8c-1.9-2.4-2.9-2.9-5.3-2.9v13.8c0,3.1,0,3.7,3.4,3.8v5.7
		H26v-5.4c3.5-1.2,3.4-1.2,3.6-2.2l0.2-36.3c0-2.2-0.3-2.3-3.2-2.8v-5.4h19.8c8,0,11.8,0.3,15.5,2.7c3.7,2.5,6.1,6.7,6.2,11.4
		C68.1,40.5,64,44,55.5,47c2.5,2,4.6,4.2,6.4,6.7l5.3-6.8l4.9,3.8L66,59.2c3.1,5.2,4.3,6.2,8.2,6.8L74.1,71.4z"/>
</g>
</svg>
