<?xml version="1.0" encoding="utf-8"?>
<!-- Generator: Adobe Illustrator 22.0.1, SVG Export Plug-In . SVG Version: 6.00 Build 0)  -->
<svg version="1.1" id="Capa_1" xmlns="http://www.w3.org/2000/svg" xmlns:xlink="http://www.w3.org/1999/xlink" x="0px" y="0px"
	 viewBox="0 0 100 100" enable-background="new 0 0 100 100" xml:space="preserve">
<path fill="none" stroke="#FF0000" stroke-width="0.25" stroke-miterlimit="10" d="M45.6,74.5l-5.3-19.6l18.3-5l4.6,16.9l-4.4-0.5
	C52.9,65.7,47.6,69.2,45.6,74.5z M85.4,87.3c-1.4,1.3-3.2,1.9-5.1,1.7l-23.9-2.6c-3.6-0.4-6.2-3.6-5.8-7.2c0.4-3.6,3.6-6.2,7.2-5.8
	l16.7,1.8c0,0-0.1-12.6-0.1-14.9v0c0-0.7-0.6-1.3-1.3-1.3c-0.7,0-1.3,0.6-1.3,1.3v9.1L68,69l-4.8-17.6c-0.9-3.2-3.8-4.5-6.4-3.8
	c-7.9,2.2-9.1,2.5-17.3,4.7c-1.9,0.5-3.5,2.2-3.8,4.3l-19-7.2c-2-0.7-3.4-2.4-4-4.4c-0.6-2-0.1-4.2,1.2-5.8l17.9-22.7
	c2.2-2.8,6.4-3.3,9.2-1.1c1.2,1,2,2.3,2.3,3.6c2.5-3.4,6.5-5.7,11.1-5.7c7.5,0,13.6,6.1,13.6,13.6s-6.1,13.6-13.6,13.6
	c-7.5,0-13.6-6.1-13.6-13.6c0-0.2,0-0.5,0-0.7L29.7,40.2l12.4,4.7l29.8-0.1c8.5,0,15.5,6.9,15.5,15.4c0,0,0,0,0,0l0.1,22.2
	C87.6,84.3,86.8,86,85.4,87.3z"/>
<path stroke="#FFFFFF" stroke-miterlimit="10" d="M58.8,66.3l4.4,0.5l-4.6-16.9l-18.3,5l5.3,19.6C47.6,69.2,52.9,65.7,58.8,66.3z"/>
<path stroke="#FFFFFF" stroke-miterlimit="10" d="M87.4,60.2c0-8.5-7-15.4-15.5-15.4l-29.8,0.1l-12.4-4.7l11.1-14.1
	c0,0.2,0,0.5,0,0.7c0,7.5,6.1,13.6,13.6,13.6c7.5,0,13.6-6.1,13.6-13.6s-6.1-13.6-13.6-13.6c-4.6,0-8.6,2.2-11.1,5.7
	c-0.3-1.4-1.1-2.7-2.3-3.6c-2.8-2.2-7-1.8-9.2,1.1L13.9,39.1c-1.3,1.6-1.7,3.8-1.2,5.8c0.6,2,2,3.6,4,4.4l19,7.2
	c0.3-2.1,1.8-3.8,3.8-4.3c8.2-2.2,9.4-2.5,17.3-4.7c2.6-0.7,5.5,0.6,6.4,3.8L68,69l3.7,0.4v-9.1c0-0.7,0.6-1.3,1.3-1.3
	c0.7,0,1.3,0.6,1.3,1.3v0c0,2.2,0.1,14.9,0.1,14.9l-16.7-1.8c-3.6-0.4-6.8,2.2-7.2,5.8c-0.4,3.6,2.2,6.8,5.8,7.2l23.9,2.6
	c1.9,0.2,3.7-0.4,5.1-1.7c1.4-1.3,2.2-3,2.2-4.9L87.4,60.2C87.4,60.2,87.4,60.2,87.4,60.2z"/>
</svg>
