<?xml version="1.0" encoding="utf-8"?>
<!-- Generator: Adobe Illustrator 22.0.1, SVG Export Plug-In . SVG Version: 6.00 Build 0)  -->
<svg version="1.1" id="Layer_3" xmlns="http://www.w3.org/2000/svg" xmlns:xlink="http://www.w3.org/1999/xlink" x="0px" y="0px"
	 viewBox="0 0 100 100" style="enable-background:new 0 0 100 100;" xml:space="preserve">
<g>
	<path d="M88.5,73.6c6.3-9,8.6-20,6.7-30.8c-3.6-19.7-20.6-34-40.4-34c-2.5,0-5,0.2-7.4,0.7l-0.1,0h-0.1h-0.1
		c-14.4,2.6-26.3,12.8-31.1,26.8l-0.4,1.3l-1.1-0.8l-9.8-6.9l4.5,25l25.1-4.5l-12.5-8.9l-0.6-0.4l0.2-0.7C25,27.9,35.2,18.6,48,16.3
		c1.9-0.3,3.9-0.5,5.8-0.5c16.5,0,30.6,11.8,33.6,28c3.3,18.5-9,36.2-27.4,39.5c-2,0.3-4.2,0.5-6.4,0.5c-0.6,0-1.3-0.4-1.8,0
		c-1.5,1.1-1.3,6.1,0,7.4c0.7,0.7,1.9,0.1,2.9,0.1c2.5,0,4.9-0.2,7.3-0.6C72.8,88.6,82.2,82.6,88.5,73.6z"/>
</g>
<path d="M60,30.6c-1.8,0-3.3,1.5-3.3,3.3v19.8l-18.2,9.4C36.8,64,36.2,66,37,67.6c0.6,1.1,1.7,1.8,3,1.8c0.5,0,1.1-0.1,1.5-0.4
	l21.8-11.3V33.9C63.3,32.1,61.8,30.6,60,30.6z"/>
</svg>
