<?xml version="1.0" encoding="utf-8"?>
<!-- Generator: Adobe Illustrator 22.0.1, SVG Export Plug-In . SVG Version: 6.00 Build 0)  -->
<svg version="1.1" id="Layer_1" xmlns="http://www.w3.org/2000/svg" xmlns:xlink="http://www.w3.org/1999/xlink" x="0px" y="0px"
	 viewBox="0 0 100 100" style="enable-background:new 0 0 100 100;" xml:space="preserve">
<g>
	<path d="M40.2,15.8c-0.6,0.3-1.2,0.9-1.4,1.4c-0.2,0.3-0.2,1.5-0.2,5.2c0,4.3,0,4.8,0.3,5.3c0.9,1.9,3.6,2.1,4.8,0.4l0.4-0.6l0-4.9
		c0-4.9,0-4.9-0.3-5.5c-0.2-0.3-0.6-0.8-0.9-1c-0.5-0.4-0.7-0.4-1.5-0.5C41,15.6,40.5,15.7,40.2,15.8z"/>
	<path d="M67.5,15.9c-0.3,0.2-0.8,0.5-1,0.9l-0.4,0.6l0,5c0,4.7,0,5,0.2,5.5c0.8,1.5,2.3,2,3.8,1.2c0.6-0.3,0.8-0.5,1.1-1.1l0.4-0.7
		v-4.7c0-4.6,0-4.7-0.3-5.3c-0.2-0.3-0.6-0.8-0.9-1c-0.4-0.4-0.7-0.4-1.5-0.5C68.3,15.6,67.9,15.7,67.5,15.9z"/>
	<g>
		<path d="M81.6,21.2c0.4,0.1,1.2,0.4,1.9,0.7c2.1,1,3.8,3.1,4.4,5.3c0.2,0.7,0.2,3.9,0.2,25.4c0,21.6,0,24.7-0.2,25.4
			c-0.6,2.2-2.3,4.3-4.3,5.3c-2.1,1-0.3,0.9-28.5,0.9c-28.2,0-26.3,0.1-28.4-1c-1.9-0.9-3.4-2.6-4.1-4.8c-0.3-0.8-0.3-1.2-0.4-4.7
			l-0.1-3.7l0.7,0.6c0.4,0.3,1.6,1.5,2.8,2.5l2.1,1.9l0.1,0.8c0.1,1,0.4,1.5,1.1,2.1l0.5,0.4h25.7h25.7l0.5-0.3
			c0.3-0.2,0.6-0.6,0.8-0.8l0.3-0.5l0-19.6l0-19.6H55.1H27.7v1.7v1.7L25,43.6l-2.7,2.5l0-8.9c0-8.4,0-8.9,0.3-9.9
			c0.7-2.9,3-5.2,5.9-5.9c0.9-0.2,1.5-0.3,4.3-0.3h3.2l0.1,3.3c0.1,3.7,0.1,4,1,5.3c1.7,2.5,5.2,3.1,7.6,1.2
			c0.9-0.7,1.6-1.7,1.9-2.7c0.2-0.8,0.3-1.3,0.3-4v-3.1h8.3h8.3v2.7c0,1.5,0.1,3.1,0.1,3.6c0.2,1.2,0.7,2.2,1.5,3
			c2.5,2.4,6.4,2,8.3-0.9c0.8-1.2,0.9-1.9,0.9-5.4v-3l3.3,0C79.4,21.1,81.2,21.2,81.6,21.2z"/>
		<path d="M29.3,43.5c-0.9,0.6-0.9,0.8-0.9,4.5l0,3.3h-7.2c-7.1,0-7.2,0-7.8,0.3c-0.4,0.2-0.8,0.5-1,0.9L11.9,53v5.2v5.2l0.4,0.5
			c0.2,0.3,0.7,0.7,1,0.8c0.6,0.3,0.6,0.3,7.8,0.3h7.2v3.1c0,3.2,0.1,3.6,0.7,4.3c0.4,0.4,0.9,0.6,1.5,0.6c0.5,0,0.9-0.4,8.7-7.4
			c4.5-4.1,8.2-7.5,8.1-7.5c0-0.1-3.5-3.2-7.7-7c-4.2-3.8-7.9-7.1-8.1-7.4C30.9,43.2,29.9,43.1,29.3,43.5z"/>
	</g>
</g>
</svg>
