<?xml version="1.0" encoding="utf-8"?>
<!-- Generator: Adobe Illustrator 22.0.1, SVG Export Plug-In . SVG Version: 6.00 Build 0)  -->
<svg version="1.1" id="Capa_1" xmlns="http://www.w3.org/2000/svg" xmlns:xlink="http://www.w3.org/1999/xlink" x="0px" y="0px"
	 viewBox="0 0 100 100" enable-background="new 0 0 100 100" xml:space="preserve">
<g>
	<path d="M74.1,31.7c-0.8-3.1-3.2-6-6.7-8.3C64.9,21.8,62,21,58.8,21c-2.5,0-5.2,0.5-7.6,1.5l-0.2,0.1c-0.1,0-0.2,0.1-0.3,0.1
		c-0.5,0.2-0.8,0.3-1.1,0.4c-0.3,0.1-0.5,0.2-0.7,0.2l2.7,2.6C55,28.8,55,31.6,55,36.7l0,1.3c0,0.6-0.4,1-1,1s-1-0.4-1-1l0-1.3
		c0-4.9,0-7-2.7-9.3l-5.1-4.9c-2.4-0.6-5.1-1.2-7.7-1.2c-1.7,0-3.1,0.2-4.4,0.7c-5.7,2-10.8,8.8-9.2,19.2c0.2,1.2,0.4,2.5,0.5,3.7
		c1.3,9,2.7,18.3,6.2,26.8l0.1,0.3c0.9,2.1,2.3,5.6,4.8,5.6h0.2l0.2-0.1c2.3-1,3.2-3.2,3.8-4.8c0.4-1.1,0.8-2.2,1.2-3.3
		c0.9-2.7,1.8-5.3,3.4-7.6c1.7-2.5,3.8-3.9,5.9-3.9c0.9,0,1.8,0.3,2.7,0.8c2.8,1.6,3.6,5,4.5,8.2c0.2,0.9,0.5,1.9,0.8,2.7
		c1.3,3.9,2.9,7.8,5.5,7.8c1.2,0,2.3-0.9,3.3-2.6c2-3.4,2.8-7.3,3.6-11l0.3-1.3c0.3-1.4,0.7-2.9,1-4.4C74,49.6,76.3,40,74.1,31.7z"
		/>
</g>
</svg>
