<svg xmlns="http://www.w3.org/2000/svg" viewBox="0 0 200 40"><title>patientConnect360</title><g style="isolation:isolate"><path d="M10,26.83A1.49,1.49,0,0,1,9.52,28a1.66,1.66,0,0,1-1.19.44H2.89v8.69h-2V15.18H8.33a1.67,1.67,0,0,1,1.19.43A1.46,1.46,0,0,1,10,16.74Zm-2-.17V16.9h-5v9.76Z" style="fill:#15375a"/></g><g style="isolation:isolate"><path d="M20.38,37.09H18.44v-.38L16.11,37a21,21,0,0,1-2.31.17q-1.61,0-1.61-1.51v-5q0-1.57,1.67-1.57h4.61V25H14.26v2.32h-1.9V25q0-1.58,1.65-1.58h4.72q1.65,0,1.65,1.58Zm-1.9-1.69V30.58H14.09v4.9Z" style="fill:#15375a"/><path d="M28.36,37.09H25.57q-1.65,0-1.65-1.58V25.11H22.19V23.47h1.73V19.23h1.93v4.24h2.51v1.64H25.85V35.45h2.51Z" style="fill:#15375a"/><path d="M32.55,20.49h-2V18.14h2Zm0,16.6H30.59V23.47h1.93Z" style="fill:#15375a"/><path d="M43.48,35.51q0,1.58-1.65,1.58H37.11q-1.65,0-1.65-1.58V25q0-1.58,1.65-1.58h4.72q1.65,0,1.65,1.58v4.9l-.66.66H37.36v4.93h4.22V33h1.9Zm-1.9-6.38V25H37.36v4.1Z" style="fill:#15375a"/><path d="M54.57,37.09h-2v-12l-4.32.11V37.09h-2V23.47h2v.38l2.31-.29a20.44,20.44,0,0,1,2.33-.17q1.64,0,1.64,1.53Z" style="fill:#15375a"/><path d="M62.51,37.09H59.72q-1.65,0-1.65-1.58V25.11H56.35V23.47h1.73V19.23H60v4.24h2.51v1.64H60V35.45h2.51Z" style="fill:#15375a"/><path d="M74.1,35.53a1.45,1.45,0,0,1-.47,1.12,1.7,1.7,0,0,1-1.19.43H66.5a1.64,1.64,0,0,1-1.18-.43,1.48,1.48,0,0,1-.46-1.12V16.74a1.47,1.47,0,0,1,.46-1.12,1.64,1.64,0,0,1,1.18-.43h5.94a1.7,1.7,0,0,1,1.19.43,1.45,1.45,0,0,1,.47,1.12v5.1H72V16.9H66.91V35.37H72V30H74.1Z" style="fill:#15375a"/><path d="M101.86,37.09h-2v-12l-4.32.11V37.09h-2V23.47h2v.38l2.31-.29a20.44,20.44,0,0,1,2.33-.17q1.64,0,1.64,1.53Z" style="fill:#15375a"/><path d="M112.88,37.09h-2v-12l-4.32.11V37.09h-2V23.47h2v.38l2.32-.29a20.43,20.43,0,0,1,2.33-.17q1.64,0,1.64,1.53Z" style="fill:#15375a"/><path d="M123.67,35.51q0,1.58-1.65,1.58H117.3q-1.65,0-1.65-1.58V25q0-1.58,1.65-1.58H122q1.65,0,1.65,1.58v4.9l-.66.66h-5.46v4.93h4.22V33h1.9Zm-1.9-6.38V25h-4.22v4.1Z" style="fill:#15375a"/><path d="M134.49,35.51q0,1.58-1.65,1.58h-4.66q-1.65,0-1.65-1.58V25q0-1.58,1.65-1.58h4.66q1.65,0,1.65,1.58v2.72h-1.93V25.11h-4.07V35.45h4.07v-3h1.93Z" style="fill:#15375a"/></g><g style="isolation:isolate"><path d="M142.44,37.09h-2.79q-1.65,0-1.65-1.58V25.11h-1.72V23.47H138V19.23h1.93v4.24h2.51v1.64h-2.51V35.45h2.51Z" style="fill:#15375a"/></g><g style="isolation:isolate"><path d="M148.64,31a3.84,3.84,0,0,0,1.26,2.9,4.36,4.36,0,0,0,6.09-.07,4,4,0,0,0,1.21-3,4.06,4.06,0,0,0-1.47-3.12,5,5,0,0,0-3.3-1.08h-.8v-1.7l.75,0a3.42,3.42,0,0,0,2.53-.75,2.77,2.77,0,0,0,1-2.37,3,3,0,0,0-5-2,2.84,2.84,0,0,0-1,2.15v.3h-2V22a4.66,4.66,0,0,1,1.5-3.5,5,5,0,0,1,7,0,4.49,4.49,0,0,1-.7,7,5.62,5.62,0,0,1,3.38,5.12,5.77,5.77,0,0,1-1.83,4.42,6.37,6.37,0,0,1-8.92,0,5.8,5.8,0,0,1-1.8-4.27v-.27h2Z" style="fill:#303030"/><path d="M173.21,17.44l-4.9,4.75a7.36,7.36,0,0,1,5.6,1.9,6.72,6.72,0,0,1,2.35,5.25A7.17,7.17,0,0,1,174,34.69a7.52,7.52,0,0,1-5.44,2.2,7.29,7.29,0,0,1-5.11-1.95,6.94,6.94,0,0,1-2.29-5.27,7.24,7.24,0,0,1,2.32-5.37l7.07-6.85Zm-8.38,8.12a5.45,5.45,0,0,0-1.8,4.15,4.91,4.91,0,0,0,1.73,3.87A5.36,5.36,0,0,0,168.47,35a5.76,5.76,0,0,0,4.23-1.72,5.29,5.29,0,0,0,1.63-3.9,5.14,5.14,0,0,0-1.62-3.85,5.34,5.34,0,0,0-3.82-1.5A5.83,5.83,0,0,0,164.83,25.57Z" style="fill:#303030"/><path d="M188.65,37a10.57,10.57,0,0,1-7.35-2.85,9.12,9.12,0,0,1-3.09-6.92,9.57,9.57,0,0,1,3-7.1,10.12,10.12,0,0,1,7.3-3,10.57,10.57,0,0,1,7.38,2.8A9.09,9.09,0,0,1,199,26.87,9.63,9.63,0,0,1,196,34,10.13,10.13,0,0,1,188.65,37Zm8.46-10a7.58,7.58,0,0,0-2.55-5.67,8.5,8.5,0,0,0-6-2.32,8.18,8.18,0,0,0-5.91,2.4,7.77,7.77,0,0,0,0,11.35,8.66,8.66,0,0,0,11.94,0A7.57,7.57,0,0,0,197.11,27Z" style="fill:#303030"/></g><path d="M97.85,13.16a4.12,4.12,0,0,0-3.34,6.45l-2.22,2.61H89.78V19.1a3,3,0,0,0,1.42-1.49L97.87,6.19a4.84,4.84,0,0,0,.79-1.75,2.38,2.38,0,0,0-1.93-2.6,21.2,21.2,0,0,0-2.32,0,2.29,2.29,0,0,0-.75-.6,2,2,0,0,0-.75,0,3.57,3.57,0,0,0-2.13,1,.69.69,0,0,0,.09,1l.05,0a3.86,3.86,0,0,0,2.34.86A1.44,1.44,0,0,0,94.64,3a.55.55,0,0,0,0-.11c.62,0,1.33,0,1.94.07a1.2,1.2,0,0,1,.92,1.12,2,2,0,0,1-.43,1.13c-2.4,4.08-4.78,8.19-7.19,12.26a1.18,1.18,0,0,1-1.64.39,1.2,1.2,0,0,1-.39-.4c-2.45-4-4.87-8.09-7.32-12.13A3.11,3.11,0,0,1,80,4.24,1.29,1.29,0,0,1,80.85,3a18,18,0,0,1,2.26-.08.49.49,0,0,0,0,.1A1.45,1.45,0,0,0,84.32,4.1a3.82,3.82,0,0,0,2.24-.64c.37-.22.79-.7.48-1.14A3.31,3.31,0,0,0,85,1.2a2.57,2.57,0,0,0-.72,0,1.9,1.9,0,0,0-.94.6h0a12.91,12.91,0,0,0-2.87.1,2.38,2.38,0,0,0-1.28,3.41c2.54,4.25,5.12,8.49,7.66,12.73a2.59,2.59,0,0,0,1.45,1.14h.11v3h-6a7.47,7.47,0,0,0-3.52,14,7.9,7.9,0,0,0,3.08.9h1a7.55,7.55,0,0,0,5.81-3.61,7.83,7.83,0,0,0,1.08-4v-6h3.11l2.54-3a4,4,0,0,0,5.69-.82,4.13,4.13,0,0,0-.81-5.75,4,4,0,0,0-2.44-.81M88.4,30a6.05,6.05,0,1,1-8.54-5.9,6.17,6.17,0,0,1,2.69-.56h5.86c0,2.15,0,4.3,0,6.45Z" style="fill:#306dab"/><ellipse cx="97.87" cy="17.26" rx="2.25" ry="2.27" style="fill:#211973"/><rect width="0.1" height="0.1" style="fill:#15375a;opacity:0"/><rect x="199.9" y="39.9" width="0.1" height="0.1" style="fill:#15375a;opacity:0"/></svg>