<?xml version="1.0" encoding="utf-8"?>
<!-- Generator: Adobe Illustrator 21.1.0, SVG Export Plug-In . SVG Version: 6.00 Build 0)  -->
<svg version="1.2" baseProfile="tiny" id="Layer_1" xmlns="http://www.w3.org/2000/svg" xmlns:xlink="http://www.w3.org/1999/xlink"
	 x="0px" y="0px" viewBox="0 0 51 25" overflow="scroll" xml:space="preserve">
<title>small-icon</title>
<g>
	<g>
		<path fill="#FFFFFF" d="M18.6,20c0,0.7,0.3,1.3,0.8,1.8c0.5,0.5,1.2,0.8,1.9,0.8c0.8,0,1.4-0.3,2-0.8c0.5-0.6,0.8-1.2,0.8-1.9
			c0-0.8-0.3-1.5-0.9-2c-0.6-0.5-1.3-0.7-2.1-0.7h-0.5v-1.1l0.5,0c0.6,0,1.2-0.1,1.6-0.5c0.5-0.4,0.7-0.9,0.7-1.5
			c0-1-0.8-1.7-1.8-1.8c-0.5,0-1,0.1-1.4,0.5c-0.4,0.4-0.6,0.8-0.6,1.4v0.2h-1.3v-0.1c0-0.9,0.3-1.6,1-2.2c0.6-0.6,1.4-0.9,2.3-0.9
			c0.9,0,1.6,0.3,2.2,0.9c0.6,0.6,0.9,1.3,0.9,2.1c0,1-0.5,1.8-1.3,2.3c1.4,0.7,2.1,1.7,2.2,3.2c0,1.1-0.4,2-1.2,2.8
			c-0.8,0.8-1.8,1.2-2.9,1.2c-1.1,0-2-0.4-2.8-1.2c-0.8-0.8-1.2-1.7-1.2-2.7v-0.2h1.3V20z"/>
		<path fill="#FFFFFF" d="M34.3,11.5l-3.1,3c1.4-0.1,2.6,0.3,3.6,1.2c1,0.9,1.5,2,1.5,3.3s-0.5,2.4-1.5,3.4c-1,0.9-2.1,1.4-3.5,1.4
			c-1.3,0-2.3-0.4-3.3-1.2c-1-0.9-1.5-2-1.5-3.3c0-1.3,0.5-2.4,1.5-3.4l4.5-4.3H34.3z M28.9,16.6c-0.8,0.7-1.2,1.6-1.2,2.6
			c0,1,0.4,1.8,1.1,2.4c0.7,0.6,1.4,0.9,2.4,0.9c1.1,0,2-0.4,2.7-1.1c0.7-0.7,1-1.5,1-2.5c0-1-0.3-1.8-1-2.4
			c-0.7-0.6-1.5-0.9-2.4-0.9C30.5,15.6,29.7,16,28.9,16.6z"/>
		<path fill="#FFFFFF" d="M44.1,23.8c-1.8,0-3.4-0.6-4.7-1.8c-1.3-1.2-2-2.7-2-4.4c0-1.8,0.6-3.2,1.9-4.5c1.3-1.2,2.8-1.9,4.7-1.9
			c1.8,0,3.4,0.6,4.7,1.8c1.3,1.2,2,2.7,2,4.4c0,1.8-0.7,3.3-2,4.5C47.5,23.2,46,23.8,44.1,23.8z M49.5,17.5c0-1.4-0.6-2.6-1.6-3.6
			c-1.1-1-2.3-1.5-3.8-1.5c-1.5,0-2.7,0.5-3.8,1.5c-1,1-1.6,2.2-1.6,3.6c0,1.4,0.5,2.6,1.6,3.6c1.1,1,2.3,1.5,3.8,1.5
			c1.5,0,2.8-0.5,3.8-1.5C49,20.2,49.5,19,49.5,17.5z"/>
	</g>
	<g>
		<path fill="#FFFFFF" d="M14.8,8.7c-1.4,0-2.6,1.2-2.6,2.6c0,0.5,0.2,1,0.5,1.5l-1.4,1.6H9.7v-2c0.4-0.2,0.7-0.5,0.9-0.9l4.3-7.2
			c0.2-0.3,0.4-0.7,0.5-1.1c0.1-0.8-0.5-1.5-1.2-1.6c-0.5,0-1,0-1.5,0c-0.1-0.2-0.3-0.3-0.5-0.4c-0.2,0-0.3,0-0.5,0
			c-0.5,0.1-1,0.3-1.4,0.7c-0.1,0.2-0.1,0.4,0,0.6l0,0C10.8,2.8,11.3,3,11.9,3c0.4,0,0.8-0.3,0.9-0.7c0,0,0,0,0-0.1
			c0.4,0,0.9,0,1.2,0c0.3,0.1,0.6,0.4,0.6,0.7c0,0.3-0.1,0.5-0.3,0.7c-1.5,2.6-3,5.2-4.6,7.7c-0.2,0.4-0.7,0.5-1,0.3
			c-0.1-0.1-0.2-0.2-0.3-0.3C6.9,8.9,5.3,6.4,3.8,3.8C3.6,3.6,3.5,3.3,3.4,3.1c0-0.4,0.2-0.7,0.5-0.8c0.5,0,1-0.1,1.4,0
			c0,0,0,0,0,0.1C5.5,2.7,5.8,2.9,6.2,3c0.5,0,1-0.1,1.4-0.4c0.2-0.1,0.5-0.4,0.3-0.7C7.6,1.5,7.1,1.2,6.6,1.2c-0.2,0-0.3,0-0.5,0
			C5.9,1.2,5.7,1.4,5.5,1.5l0,0c-0.6,0-1.2,0-1.8,0.1C2.9,1.9,2.5,2.7,2.8,3.5c0,0.1,0.1,0.2,0.1,0.2c1.6,2.7,3.3,5.4,4.9,8
			c0.2,0.3,0.6,0.6,0.9,0.7h0.1v1.9H4.9c-2.6,0-4.7,2.2-4.7,4.8c0,1.7,0.9,3.3,2.4,4.1c0.6,0.3,1.3,0.5,2,0.6h0.6
			c1.5-0.1,2.9-1,3.7-2.3c0.5-0.8,0.7-1.6,0.7-2.5v-3.8h2l0,0l1.6-1.9c1.1,0.9,2.8,0.6,3.6-0.5c0.9-1.1,0.6-2.8-0.5-3.6
			C15.9,8.9,15.4,8.7,14.8,8.7 M8.8,19.4c-0.1,2.1-1.9,3.8-4.1,3.6S1,21.1,1.1,18.9c0.1-1.4,1-2.7,2.3-3.3c0.5-0.2,1.1-0.4,1.7-0.4
			h3.7C8.8,16.6,8.8,18,8.8,19.4L8.8,19.4z"/>
		<ellipse fill="#211973" cx="14.8" cy="11.3" rx="1.4" ry="1.4"/>
	</g>
</g>
<rect width="0.1" height="0.1"/>
<rect x="50.9" y="24.9" width="0.1" height="0.1"/>
</svg>
